<?xml version="1.0" encoding="UTF-8" standalone="no"?>
<!DOCTYPE svg PUBLIC "-//W3C//DTD SVG 1.1//EN"
 "http://www.w3.org/Graphics/SVG/1.1/DTD/svg11.dtd">
<!-- Generated by graphviz version 2.43.0 (0)
 -->
<!-- Title: prisma_lite Pages: 1 -->
<svg width="175pt" height="343pt"
 viewBox="0.00 0.00 175.00 343.00" xmlns="http://www.w3.org/2000/svg" xmlns:xlink="http://www.w3.org/1999/xlink">
<g id="graph0" class="graph" transform="scale(1 1) rotate(0) translate(4 339)">
<title>prisma_lite</title>
<polygon fill="white" stroke="transparent" points="-4,4 -4,-339 171,-339 171,4 -4,4"/>
<!-- s1 -->
<g id="node1" class="node">
<title>s1</title>
<path fill="white" stroke="black" d="M155,-335C155,-335 12,-335 12,-335 6,-335 0,-329 0,-323 0,-323 0,-300 0,-300 0,-294 6,-288 12,-288 12,-288 155,-288 155,-288 161,-288 167,-294 167,-300 167,-300 167,-323 167,-323 167,-329 161,-335 155,-335"/>
<text text-anchor="middle" x="83.5" y="-321.4" font-family="Times,serif" font-size="12.00">Records identified</text>
<text text-anchor="middle" x="83.5" y="-308.4" font-family="Times,serif" font-size="12.00">(PubMed, IEEE Xplore,</text>
<text text-anchor="middle" x="83.5" y="-295.4" font-family="Times,serif" font-size="12.00">Web of Science, Scholar)</text>
</g>
<!-- s2 -->
<g id="node2" class="node">
<title>s2</title>
<path fill="white" stroke="black" d="M119.5,-252C119.5,-252 47.5,-252 47.5,-252 41.5,-252 35.5,-246 35.5,-240 35.5,-240 35.5,-228 35.5,-228 35.5,-222 41.5,-216 47.5,-216 47.5,-216 119.5,-216 119.5,-216 125.5,-216 131.5,-222 131.5,-228 131.5,-228 131.5,-240 131.5,-240 131.5,-246 125.5,-252 119.5,-252"/>
<text text-anchor="middle" x="83.5" y="-230.9" font-family="Times,serif" font-size="12.00">Deduplicated</text>
</g>
<!-- s1&#45;&gt;s2 -->
<g id="edge1" class="edge">
<title>s1&#45;&gt;s2</title>
<path fill="none" stroke="black" d="M83.5,-287.85C83.5,-279.78 83.5,-270.62 83.5,-262.22"/>
<polygon fill="black" stroke="black" points="87,-262.11 83.5,-252.11 80,-262.11 87,-262.11"/>
</g>
<!-- s3 -->
<g id="node3" class="node">
<title>s3</title>
<path fill="white" stroke="black" d="M142,-180C142,-180 25,-180 25,-180 19,-180 13,-174 13,-168 13,-168 13,-156 13,-156 13,-150 19,-144 25,-144 25,-144 142,-144 142,-144 148,-144 154,-150 154,-156 154,-156 154,-168 154,-168 154,-174 148,-180 142,-180"/>
<text text-anchor="middle" x="83.5" y="-158.9" font-family="Times,serif" font-size="12.00">Title/abstract screen</text>
</g>
<!-- s2&#45;&gt;s3 -->
<g id="edge2" class="edge">
<title>s2&#45;&gt;s3</title>
<path fill="none" stroke="black" d="M83.5,-215.7C83.5,-207.98 83.5,-198.71 83.5,-190.11"/>
<polygon fill="black" stroke="black" points="87,-190.1 83.5,-180.1 80,-190.1 87,-190.1"/>
</g>
<!-- s4 -->
<g id="node4" class="node">
<title>s4</title>
<path fill="white" stroke="black" d="M132.5,-108C132.5,-108 34.5,-108 34.5,-108 28.5,-108 22.5,-102 22.5,-96 22.5,-96 22.5,-84 22.5,-84 22.5,-78 28.5,-72 34.5,-72 34.5,-72 132.5,-72 132.5,-72 138.5,-72 144.5,-78 144.5,-84 144.5,-84 144.5,-96 144.5,-96 144.5,-102 138.5,-108 132.5,-108"/>
<text text-anchor="middle" x="83.5" y="-86.9" font-family="Times,serif" font-size="12.00">Full&#45;text assessed</text>
</g>
<!-- s3&#45;&gt;s4 -->
<g id="edge3" class="edge">
<title>s3&#45;&gt;s4</title>
<path fill="none" stroke="black" d="M83.5,-143.7C83.5,-135.98 83.5,-126.71 83.5,-118.11"/>
<polygon fill="black" stroke="black" points="87,-118.1 83.5,-108.1 80,-118.1 87,-118.1"/>
</g>
<!-- s5 -->
<g id="node5" class="node">
<title>s5</title>
<path fill="white" stroke="black" d="M128.5,-36C128.5,-36 38.5,-36 38.5,-36 32.5,-36 26.5,-30 26.5,-24 26.5,-24 26.5,-12 26.5,-12 26.5,-6 32.5,0 38.5,0 38.5,0 128.5,0 128.5,0 134.5,0 140.5,-6 140.5,-12 140.5,-12 140.5,-24 140.5,-24 140.5,-30 134.5,-36 128.5,-36"/>
<text text-anchor="middle" x="83.5" y="-21.4" font-family="Times,serif" font-size="12.00">Included studies</text>
<text text-anchor="middle" x="83.5" y="-8.4" font-family="Times,serif" font-size="12.00">(n=84)</text>
</g>
<!-- s4&#45;&gt;s5 -->
<g id="edge4" class="edge">
<title>s4&#45;&gt;s5</title>
<path fill="none" stroke="black" d="M83.5,-71.7C83.5,-63.98 83.5,-54.71 83.5,-46.11"/>
<polygon fill="black" stroke="black" points="87,-46.1 83.5,-36.1 80,-46.1 87,-46.1"/>
</g>
</g>
</svg>
