<?xml version="1.0" encoding="UTF-8" standalone="no"?>
<!DOCTYPE svg PUBLIC "-//W3C//DTD SVG 1.1//EN"
 "http://www.w3.org/Graphics/SVG/1.1/DTD/svg11.dtd">
<!-- Generated by graphviz version 2.43.0 (0)
 -->
<!-- Title: alias_norm Pages: 1 -->
<svg width="1041pt" height="385pt"
 viewBox="0.00 0.00 1041.00 384.50" xmlns="http://www.w3.org/2000/svg" xmlns:xlink="http://www.w3.org/1999/xlink">
<g id="graph0" class="graph" transform="scale(1 1) rotate(0) translate(4 380.5)">
<title>alias_norm</title>
<polygon fill="white" stroke="transparent" points="-4,4 -4,-380.5 1037,-380.5 1037,4 -4,4"/>
<g id="clust1" class="cluster">
<title>cluster_examples</title>
<path fill="none" stroke="#999999" stroke-dasharray="5,2" d="M543,-8C543,-8 827,-8 827,-8 833,-8 839,-14 839,-20 839,-20 839,-315 839,-315 839,-321 833,-327 827,-327 827,-327 543,-327 543,-327 537,-327 531,-321 531,-315 531,-315 531,-20 531,-20 531,-14 537,-8 543,-8"/>
<text text-anchor="middle" x="685" y="-311.8" font-family="Times,serif" font-size="14.00">Examples</text>
</g>
<!-- n0 -->
<g id="node1" class="node">
<title>n0</title>
<path fill="white" stroke="black" d="M134,-204C134,-204 12,-204 12,-204 6,-204 0,-198 0,-192 0,-192 0,-180 0,-180 0,-174 6,-168 12,-168 12,-168 134,-168 134,-168 140,-168 146,-174 146,-180 146,-180 146,-192 146,-192 146,-198 140,-204 134,-204"/>
<text text-anchor="middle" x="73" y="-189.4" font-family="Times,serif" font-size="12.00">Raw extracted values</text>
<text text-anchor="middle" x="73" y="-176.4" font-family="Times,serif" font-size="12.00">(per field)</text>
</g>
<!-- n1 -->
<g id="node2" class="node">
<title>n1</title>
<path fill="white" stroke="black" d="M328,-204C328,-204 190,-204 190,-204 184,-204 178,-198 178,-192 178,-192 178,-180 178,-180 178,-174 184,-168 190,-168 190,-168 328,-168 328,-168 334,-168 340,-174 340,-180 340,-180 340,-192 340,-192 340,-198 334,-204 328,-204"/>
<text text-anchor="middle" x="259" y="-189.4" font-family="Times,serif" font-size="12.00">Tokenization</text>
<text text-anchor="middle" x="259" y="-176.4" font-family="Times,serif" font-size="12.00">(split multi&#45;valued, trim)</text>
</g>
<!-- n0&#45;&gt;n1 -->
<g id="edge1" class="edge">
<title>n0&#45;&gt;n1</title>
<path fill="none" stroke="black" d="M146.19,-186C153.16,-186 160.29,-186 167.4,-186"/>
<polygon fill="black" stroke="black" points="167.8,-189.5 177.8,-186 167.8,-182.5 167.8,-189.5"/>
</g>
<!-- n2 -->
<g id="node3" class="node">
<title>n2</title>
<path fill="white" stroke="black" d="M495,-204C495,-204 384,-204 384,-204 378,-204 372,-198 372,-192 372,-192 372,-180 372,-180 372,-174 378,-168 384,-168 384,-168 495,-168 495,-168 501,-168 507,-174 507,-180 507,-180 507,-192 507,-192 507,-198 501,-204 495,-204"/>
<text text-anchor="middle" x="439.5" y="-189.4" font-family="Times,serif" font-size="12.00">Alias dictionaries</text>
<text text-anchor="middle" x="439.5" y="-176.4" font-family="Times,serif" font-size="12.00">(regex → canonical)</text>
</g>
<!-- n1&#45;&gt;n2 -->
<g id="edge2" class="edge">
<title>n1&#45;&gt;n2</title>
<path fill="none" stroke="black" d="M340.11,-186C347.27,-186 354.51,-186 361.65,-186"/>
<polygon fill="black" stroke="black" points="362,-189.5 372,-186 362,-182.5 362,-189.5"/>
</g>
<!-- n3 -->
<g id="node4" class="node">
<title>n3</title>
<path fill="white" stroke="black" d="M738,-371C738,-371 632,-371 632,-371 626,-371 620,-365 620,-359 620,-359 620,-347 620,-347 620,-341 626,-335 632,-335 632,-335 738,-335 738,-335 744,-335 750,-341 750,-347 750,-347 750,-359 750,-359 750,-365 744,-371 738,-371"/>
<text text-anchor="middle" x="685" y="-356.4" font-family="Times,serif" font-size="12.00">De&#45;dup &amp; ordering</text>
<text text-anchor="middle" x="685" y="-343.4" font-family="Times,serif" font-size="12.00">(uniq_keep_order)</text>
</g>
<!-- n2&#45;&gt;n3 -->
<g id="edge3" class="edge">
<title>n2&#45;&gt;n3</title>
<path fill="none" stroke="black" d="M446.2,-204.3C457.08,-235.93 484.02,-300.37 531,-331 554.02,-346.01 583.11,-352.53 609.73,-354.96"/>
<polygon fill="black" stroke="black" points="609.56,-358.45 619.79,-355.69 610.07,-351.47 609.56,-358.45"/>
</g>
<!-- e1 -->
<g id="node6" class="node">
<title>e1</title>
<path fill="white" stroke="black" d="M782,-296C782,-296 588,-296 588,-296 582,-296 576,-290 576,-284 576,-284 576,-272 576,-272 576,-266 582,-260 588,-260 588,-260 782,-260 782,-260 788,-260 794,-266 794,-272 794,-272 794,-284 794,-284 794,-290 788,-296 782,-296"/>
<text text-anchor="middle" x="685" y="-274.9" font-family="Times,serif" font-size="12.00">Vanilla Image Transformer → ViT</text>
</g>
<!-- n2&#45;&gt;e1 -->
<g id="edge5" class="edge">
<title>n2&#45;&gt;e1</title>
<path fill="none" stroke="#7f7f7f" stroke-dasharray="1,5" d="M462.13,-204.19C479.64,-217.98 505.48,-236.32 531,-247 542.15,-251.67 554.05,-255.65 566.11,-259.04"/>
<polygon fill="#7f7f7f" stroke="#7f7f7f" points="565.24,-262.43 575.8,-261.64 567.05,-255.67 565.24,-262.43"/>
</g>
<!-- e2 -->
<g id="node7" class="node">
<title>e2</title>
<path fill="white" stroke="black" d="M724,-235C724,-235 646,-235 646,-235 640,-235 634,-229 634,-223 634,-223 634,-211 634,-211 634,-205 640,-199 646,-199 646,-199 724,-199 724,-199 730,-199 736,-205 736,-211 736,-211 736,-223 736,-223 736,-229 730,-235 724,-235"/>
<text text-anchor="middle" x="685" y="-213.9" font-family="Times,serif" font-size="12.00">ViTB/16 → ViT</text>
</g>
<!-- n2&#45;&gt;e2 -->
<g id="edge6" class="edge">
<title>n2&#45;&gt;e2</title>
<path fill="none" stroke="#7f7f7f" stroke-dasharray="1,5" d="M507.04,-194.47C543.44,-199.1 588.19,-204.8 623.58,-209.31"/>
<polygon fill="#7f7f7f" stroke="#7f7f7f" points="623.41,-212.81 633.77,-210.6 624.29,-205.87 623.41,-212.81"/>
</g>
<!-- e3 -->
<g id="node8" class="node">
<title>e3</title>
<path fill="white" stroke="black" d="M819,-174C819,-174 551,-174 551,-174 545,-174 539,-168 539,-162 539,-162 539,-150 539,-150 539,-144 545,-138 551,-138 551,-138 819,-138 819,-138 825,-138 831,-144 831,-150 831,-150 831,-162 831,-162 831,-168 825,-174 819,-174"/>
<text text-anchor="middle" x="685" y="-152.9" font-family="Times,serif" font-size="12.00">cross&#45;attention, conditioned → cross&#45;attention</text>
</g>
<!-- n2&#45;&gt;e3 -->
<g id="edge7" class="edge">
<title>n2&#45;&gt;e3</title>
<path fill="none" stroke="#7f7f7f" stroke-dasharray="1,5" d="M507.04,-177.8C513.91,-176.96 521.08,-176.07 528.43,-175.17"/>
<polygon fill="#7f7f7f" stroke="#7f7f7f" points="529.06,-178.62 538.55,-173.92 528.2,-171.67 529.06,-178.62"/>
</g>
<!-- e4 -->
<g id="node9" class="node">
<title>e4</title>
<path fill="white" stroke="black" d="M777,-113C777,-113 593,-113 593,-113 587,-113 581,-107 581,-101 581,-101 581,-89 581,-89 581,-83 587,-77 593,-77 593,-77 777,-77 777,-77 783,-77 789,-83 789,-89 789,-89 789,-101 789,-101 789,-107 783,-113 777,-113"/>
<text text-anchor="middle" x="685" y="-91.9" font-family="Times,serif" font-size="12.00">NSP → next sentence prediction</text>
</g>
<!-- n2&#45;&gt;e4 -->
<g id="edge8" class="edge">
<title>n2&#45;&gt;e4</title>
<path fill="none" stroke="#7f7f7f" stroke-dasharray="1,5" d="M462.12,-167.76C479.61,-153.95 505.45,-135.6 531,-125 543.57,-119.78 557.11,-115.46 570.75,-111.87"/>
<polygon fill="#7f7f7f" stroke="#7f7f7f" points="571.83,-115.21 580.69,-109.39 570.14,-108.42 571.83,-115.21"/>
</g>
<!-- e5 -->
<g id="node10" class="node">
<title>e5</title>
<path fill="white" stroke="black" d="M768.5,-52C768.5,-52 601.5,-52 601.5,-52 595.5,-52 589.5,-46 589.5,-40 589.5,-40 589.5,-28 589.5,-28 589.5,-22 595.5,-16 601.5,-16 601.5,-16 768.5,-16 768.5,-16 774.5,-16 780.5,-22 780.5,-28 780.5,-28 780.5,-40 780.5,-40 780.5,-46 774.5,-52 768.5,-52"/>
<text text-anchor="middle" x="685" y="-30.9" font-family="Times,serif" font-size="12.00">RL → reinforcement learning</text>
</g>
<!-- n2&#45;&gt;e5 -->
<g id="edge9" class="edge">
<title>n2&#45;&gt;e5</title>
<path fill="none" stroke="#7f7f7f" stroke-dasharray="1,5" d="M448.64,-167.73C461.79,-140.47 490.41,-89.62 531,-64 545.54,-54.82 562.29,-48.35 579.25,-43.81"/>
<polygon fill="#7f7f7f" stroke="#7f7f7f" points="580.37,-47.14 589.25,-41.35 578.7,-40.34 580.37,-47.14"/>
</g>
<!-- n4 -->
<g id="node5" class="node">
<title>n4</title>
<path fill="white" stroke="black" d="M1021,-376.5C1021,-376.5 875,-376.5 875,-376.5 869,-376.5 863,-370.5 863,-364.5 863,-364.5 863,-341.5 863,-341.5 863,-335.5 869,-329.5 875,-329.5 875,-329.5 1021,-329.5 1021,-329.5 1027,-329.5 1033,-335.5 1033,-341.5 1033,-341.5 1033,-364.5 1033,-364.5 1033,-370.5 1027,-376.5 1021,-376.5"/>
<text text-anchor="middle" x="948" y="-362.9" font-family="Times,serif" font-size="12.00">Canonical value</text>
<text text-anchor="middle" x="948" y="-349.9" font-family="Times,serif" font-size="12.00">(e.g., ViT, cross&#45;attention,</text>
<text text-anchor="middle" x="948" y="-336.9" font-family="Times,serif" font-size="12.00">contrastive, LLaVA)</text>
</g>
<!-- n3&#45;&gt;n4 -->
<g id="edge4" class="edge">
<title>n3&#45;&gt;n4</title>
<path fill="none" stroke="black" d="M750.18,-353C780.96,-353 818.44,-353 852.4,-353"/>
<polygon fill="black" stroke="black" points="852.82,-356.5 862.82,-353 852.82,-349.5 852.82,-356.5"/>
</g>
</g>
</svg>
