<?xml version="1.0" encoding="UTF-8" standalone="no"?>
<!DOCTYPE svg PUBLIC "-//W3C//DTD SVG 1.1//EN"
 "http://www.w3.org/Graphics/SVG/1.1/DTD/svg11.dtd">
<!-- Generated by graphviz version 2.43.0 (0)
 -->
<!-- Title: ablation_map Pages: 1 -->
<svg width="643pt" height="211pt"
 viewBox="0.00 0.00 643.00 210.50" xmlns="http://www.w3.org/2000/svg" xmlns:xlink="http://www.w3.org/1999/xlink">
<g id="graph0" class="graph" transform="scale(1 1) rotate(0) translate(4 206.5)">
<title>ablation_map</title>
<polygon fill="white" stroke="transparent" points="-4,4 -4,-206.5 639,-206.5 639,4 -4,4"/>
<!-- v18 -->
<g id="node1" class="node">
<title>v18</title>
<path fill="white" stroke="black" d="M82,-102.5C82,-102.5 12,-102.5 12,-102.5 6,-102.5 0,-96.5 0,-90.5 0,-90.5 0,-67.5 0,-67.5 0,-61.5 6,-55.5 12,-55.5 12,-55.5 82,-55.5 82,-55.5 88,-55.5 94,-61.5 94,-67.5 94,-67.5 94,-90.5 94,-90.5 94,-96.5 88,-102.5 82,-102.5"/>
<text text-anchor="middle" x="47" y="-88.9" font-family="Times,serif" font-size="12.00">v18</text>
<text text-anchor="middle" x="47" y="-75.9" font-family="Times,serif" font-size="12.00">RAG + LLM</text>
<text text-anchor="middle" x="47" y="-62.9" font-family="Times,serif" font-size="12.00">(strict JSON)</text>
</g>
<!-- v21 -->
<g id="node2" class="node">
<title>v21</title>
<path fill="white" stroke="black" d="M222,-169.5C222,-169.5 146,-169.5 146,-169.5 140,-169.5 134,-163.5 134,-157.5 134,-157.5 134,-134.5 134,-134.5 134,-128.5 140,-122.5 146,-122.5 146,-122.5 222,-122.5 222,-122.5 228,-122.5 234,-128.5 234,-134.5 234,-134.5 234,-157.5 234,-157.5 234,-163.5 228,-169.5 222,-169.5"/>
<text text-anchor="middle" x="184" y="-155.9" font-family="Times,serif" font-size="12.00">v21</text>
<text text-anchor="middle" x="184" y="-142.9" font-family="Times,serif" font-size="12.00">Cascade</text>
<text text-anchor="middle" x="184" y="-129.9" font-family="Times,serif" font-size="12.00">(LLM → filler)</text>
</g>
<!-- v18&#45;&gt;v21 -->
<g id="edge1" class="edge">
<title>v18&#45;&gt;v21</title>
<path fill="none" stroke="black" d="M94.08,-101.87C104.36,-106.97 115.38,-112.44 126.04,-117.73"/>
<polygon fill="black" stroke="black" points="124.77,-121.01 135.29,-122.32 127.89,-114.74 124.77,-121.01"/>
</g>
<!-- fx1 -->
<g id="node4" class="node">
<title>fx1</title>
<path fill="white" stroke="black" d="M226.5,-97C226.5,-97 141.5,-97 141.5,-97 135.5,-97 129.5,-91 129.5,-85 129.5,-85 129.5,-73 129.5,-73 129.5,-67 135.5,-61 141.5,-61 141.5,-61 226.5,-61 226.5,-61 232.5,-61 238.5,-67 238.5,-73 238.5,-73 238.5,-85 238.5,-85 238.5,-91 232.5,-97 226.5,-97"/>
<text text-anchor="middle" x="184" y="-82.4" font-family="Times,serif" font-size="12.00">Retrieval depth</text>
<text text-anchor="middle" x="184" y="-69.4" font-family="Times,serif" font-size="12.00">(top&#45;k)</text>
</g>
<!-- v18&#45;&gt;fx1 -->
<g id="edge3" class="edge">
<title>v18&#45;&gt;fx1</title>
<path fill="none" stroke="#7f7f7f" stroke-dasharray="1,5" d="M94.08,-79C102.12,-79 110.61,-79 119.02,-79"/>
<polygon fill="#7f7f7f" stroke="#7f7f7f" points="119.22,-82.5 129.22,-79 119.22,-75.5 119.22,-82.5"/>
</g>
<!-- fx2 -->
<g id="node5" class="node">
<title>fx2</title>
<path fill="white" stroke="black" d="M230,-36C230,-36 138,-36 138,-36 132,-36 126,-30 126,-24 126,-24 126,-12 126,-12 126,-6 132,0 138,0 138,0 230,0 230,0 236,0 242,-6 242,-12 242,-12 242,-24 242,-24 242,-30 236,-36 230,-36"/>
<text text-anchor="middle" x="184" y="-21.4" font-family="Times,serif" font-size="12.00">Evidence mode</text>
<text text-anchor="middle" x="184" y="-8.4" font-family="Times,serif" font-size="12.00">(strict vs hybrid)</text>
</g>
<!-- v18&#45;&gt;fx2 -->
<g id="edge4" class="edge">
<title>v18&#45;&gt;fx2</title>
<path fill="none" stroke="#7f7f7f" stroke-dasharray="1,5" d="M94.08,-58.18C106.87,-52.4 120.79,-46.11 133.75,-40.25"/>
<polygon fill="#7f7f7f" stroke="#7f7f7f" points="135.31,-43.39 142.99,-36.08 132.43,-37.01 135.31,-43.39"/>
</g>
<!-- v22 -->
<g id="node3" class="node">
<title>v22</title>
<path fill="white" stroke="black" d="M407,-202.5C407,-202.5 315,-202.5 315,-202.5 309,-202.5 303,-196.5 303,-190.5 303,-190.5 303,-167.5 303,-167.5 303,-161.5 309,-155.5 315,-155.5 315,-155.5 407,-155.5 407,-155.5 413,-155.5 419,-161.5 419,-167.5 419,-167.5 419,-190.5 419,-190.5 419,-196.5 413,-202.5 407,-202.5"/>
<text text-anchor="middle" x="361" y="-188.9" font-family="Times,serif" font-size="12.00">v22</text>
<text text-anchor="middle" x="361" y="-175.9" font-family="Times,serif" font-size="12.00">Ensemble fusion</text>
<text text-anchor="middle" x="361" y="-162.9" font-family="Times,serif" font-size="12.00">(rule&#45;based)</text>
</g>
<!-- v21&#45;&gt;v22 -->
<g id="edge2" class="edge">
<title>v21&#45;&gt;v22</title>
<path fill="none" stroke="black" d="M234.21,-155.28C252.38,-158.71 273.28,-162.65 292.77,-166.32"/>
<polygon fill="black" stroke="black" points="292.34,-169.8 302.81,-168.22 293.63,-162.92 292.34,-169.8"/>
</g>
<!-- fx3 -->
<g id="node6" class="node">
<title>fx3</title>
<path fill="white" stroke="black" d="M436,-130C436,-130 286,-130 286,-130 280,-130 274,-124 274,-118 274,-118 274,-106 274,-106 274,-100 280,-94 286,-94 286,-94 436,-94 436,-94 442,-94 448,-100 448,-106 448,-106 448,-118 448,-118 448,-124 442,-130 436,-130"/>
<text text-anchor="middle" x="361" y="-115.4" font-family="Times,serif" font-size="12.00">Filler strength</text>
<text text-anchor="middle" x="361" y="-102.4" font-family="Times,serif" font-size="12.00">(alias coverage, NA rules)</text>
</g>
<!-- v21&#45;&gt;fx3 -->
<g id="edge5" class="edge">
<title>v21&#45;&gt;fx3</title>
<path fill="none" stroke="#7f7f7f" stroke-dasharray="1,5" d="M234.21,-136.44C243.56,-134.62 253.63,-132.67 263.86,-130.68"/>
<polygon fill="#7f7f7f" stroke="#7f7f7f" points="264.55,-134.11 273.7,-128.77 263.22,-127.24 264.55,-134.11"/>
</g>
<!-- fx4 -->
<g id="node7" class="node">
<title>fx4</title>
<path fill="white" stroke="black" d="M623,-197C623,-197 492,-197 492,-197 486,-197 480,-191 480,-185 480,-185 480,-173 480,-173 480,-167 486,-161 492,-161 492,-161 623,-161 623,-161 629,-161 635,-167 635,-173 635,-173 635,-185 635,-185 635,-191 629,-197 623,-197"/>
<text text-anchor="middle" x="557.5" y="-182.4" font-family="Times,serif" font-size="12.00">Resolution policy</text>
<text text-anchor="middle" x="557.5" y="-169.4" font-family="Times,serif" font-size="12.00">(field&#45;wise precedence)</text>
</g>
<!-- v22&#45;&gt;fx4 -->
<g id="edge6" class="edge">
<title>v22&#45;&gt;fx4</title>
<path fill="none" stroke="#7f7f7f" stroke-dasharray="1,5" d="M419.04,-179C434.97,-179 452.65,-179 469.87,-179"/>
<polygon fill="#7f7f7f" stroke="#7f7f7f" points="469.95,-182.5 479.95,-179 469.95,-175.5 469.95,-182.5"/>
</g>
</g>
</svg>
